<svg width="263" height="172" viewBox="0 0 263 172" fill="none" xmlns="http://www.w3.org/2000/svg">
<rect width="263" height="172" fill="white"/>
<rect x="9" y="97.6691" width="82" height="61" fill="#D9D9D9"/>
<rect x="91" y="97.6691" width="81" height="61" fill="#D9D9D9"/>
<rect x="172" y="97.6691" width="82" height="61" fill="#D9D9D9"/>
<path d="M9 29.6691C9 18.0711 18.402 8.66913 30 8.66913H91V98.1691H9V29.6691Z" fill="#D9D9D9"/>
<rect x="91" y="8.66913" width="81" height="89" fill="#D9D9D9"/>
<path d="M172 8.66913H233C244.598 8.66913 254 18.0711 254 29.6691V97.6691H172V8.66913Z" fill="#D9D9D9"/>
<path fill-rule="evenodd" clip-rule="evenodd" d="M41.1368 89.5901C40.0009 88.4542 38.216 85.5984 40.1632 83.2618C42.1104 80.9251 50.0614 70.9296 53.7935 66.2239V63.7899L41.6236 24.8463L36.2688 6.34807C35.6198 6.02354 34.2243 5.17976 33.8349 4.40088C33.3481 3.42729 34.3217 1.48011 36.2688 0.50652C38.216 -0.467071 40.65 0.0197241 40.65 1.48011C40.65 1.98641 40.5915 2.4342 40.5353 2.86405C40.4295 3.67407 40.332 4.42039 40.65 5.37448C40.8073 5.84641 42.5914 11.6053 44.9344 19.1684C49.8418 35.0091 57.2011 58.7647 57.2011 58.4352C57.2011 58.0458 64.3407 46.9144 67.9106 41.3974C68.8842 39.6124 71.7076 35.9452 75.2125 35.5558C78.7174 35.1664 89.005 30.8501 93.7107 28.7407C99.5523 26.3067 111.43 21.4387 112.209 21.4387C112.579 21.4387 113.512 21.1573 114.58 20.8351C116.321 20.3099 118.421 19.6766 119.024 19.9783C119.803 20.3678 119.349 14.6236 119.024 11.7028C120.16 7.97072 124.476 0.50652 132.654 0.50652C142.877 0.50652 147.258 8.29525 147.258 11.7028C147.258 14.4289 147.907 19.3293 148.232 21.4387C150.828 22.2501 156.41 23.9701 157.968 24.3595C159.915 24.8463 173.545 32.635 178.9 37.503C183.184 41.3974 184.904 41.7219 185.228 41.3974C185.553 39.7747 187.468 36.3347 192.53 35.5558C198.859 34.5822 205.674 33.6086 208.594 34.5822C211.515 35.5558 217.844 41.3974 219.304 45.7785C220.764 50.1597 222.712 59.8956 221.738 62.8164C221.532 63.4327 221.284 64.2876 220.996 65.2756C219.921 68.9697 218.304 74.5263 216.383 76.4466C213.949 78.8806 209.568 77.907 208.594 75.473C205.479 77.4202 200.481 80.8278 198.372 82.2882C196.587 83.5863 192.043 85.2089 188.149 81.3146C186.658 79.8236 185.669 78.7436 184.903 77.9068C183.168 76.0114 182.575 75.3634 179.874 74.0126C176.758 72.4549 170.462 68.4956 167.704 66.7107C168.19 69.956 169.553 77.2255 171.111 80.341C171.714 81.5459 172.642 83.31 173.638 85.2007C175.859 89.4211 178.413 94.2725 178.413 94.9449C178.413 95.3012 178.609 96.4402 178.857 97.8844C179.287 100.386 179.874 103.803 179.874 105.654C183.281 110.036 193.504 118.798 196.425 119.771C199.345 120.745 210.542 129.507 213.949 134.862C216.675 139.146 218.655 142.164 219.304 143.138C219.953 144.436 220.862 147.421 219.304 148.979C217.746 150.537 217.681 154.496 217.844 156.281V163.583L211.028 168.451C209.406 168.776 205.576 168.743 203.24 166.017C199.735 167.185 194.315 169.1 192.043 169.911C190.745 169.587 186.981 167.185 182.308 160.175C177.634 153.166 168.028 147.194 163.809 145.085C159.266 141.515 149.205 133.012 145.311 127.56C141.417 122.108 133.303 110.685 129.734 105.654C129.409 108.737 127.884 115.877 124.379 119.771C120.874 123.666 98.5787 138.594 87.8692 145.572C88.1937 149.79 90.3032 158.423 96.1447 159.202C101.986 159.981 115.454 160.825 121.458 161.149C123.892 160.662 128.857 159.981 129.247 161.149C129.734 162.609 129.247 168.451 127.786 169.911C127.602 170.096 127.472 170.265 127.353 170.419C126.531 171.487 126.244 171.859 112.209 171.859C99.3576 171.859 91.6013 170.56 89.3296 169.911C86.7333 169.911 81.054 167.769 79.1069 159.202C77.1597 150.634 76.6729 150.44 76.6729 151.413C71.8049 154.658 61.2901 161.831 58.1747 164.557C57.8159 164.871 57.4819 165.168 57.1678 165.448C54.072 168.204 52.9031 169.245 48.9255 167.477C45.4206 165.92 43.5708 164.881 43.084 164.557C42.5972 166.179 40.7474 169.035 37.2425 167.477C32.8613 165.53 32.3745 165.043 32.3745 157.741V147.519C31.4009 147.519 29.3564 147.129 28.9669 145.572C28.9315 145.43 28.8961 145.296 28.8622 145.168C28.4299 143.533 28.2411 142.819 31.4009 138.756C34.8085 134.375 47.9519 122.205 55.2539 117.337C61.0954 113.443 63.8539 111.496 64.503 111.009L61.5822 102.247C59.635 102.571 55.2539 102.928 53.3067 101.76C51.606 100.74 50.1429 98.7684 49.0836 97.3413C48.6269 96.726 48.2452 96.2118 47.9519 95.9184C47.1731 95.1396 43.084 91.375 41.1368 89.5901ZM89.3296 75.9598C90.79 74.1749 93.8081 70.1183 94.1975 68.1711C94.3789 67.2642 94.3575 65.8165 94.3349 64.2815C94.2967 61.6969 94.2549 58.8646 95.1711 57.9484C96.3394 56.7801 91.7635 61.0314 89.3296 63.3031V66.7107C89.3296 69.8262 88.6805 73.5258 88.356 74.9862L89.3296 75.9598ZM73.2653 98.8392C73.5898 100.462 74.3363 103.61 74.7257 103.22C75.2125 102.734 81.5408 91.5373 81.5408 91.5373C81.5408 91.5373 76.1861 95.1071 73.2653 98.8392Z" fill="#C9C9C9"/>
<path fill-rule="evenodd" clip-rule="evenodd" d="M6 29.6691C6 15.862 17.1929 4.66913 31 4.66913H232C245.807 4.66913 257 15.862 257 29.6691V158.669H253V29.6691C253 18.0711 243.598 8.66913 232 8.66913H31C19.402 8.66913 10 18.0711 10 29.6691V158.669H6V29.6691Z" fill="#C9C9C9"/>
</svg>
